# xmcd CD database file
# Copyright (C) 1993-1997  Ti Kan
#
# Track frame offsets:
#	150
#	23621
#	40315
#	63739
#	84180
#	101179
#	113978
#	132124
#	158408
#	177631
#	201070
#	213626
#	222571
#	230426
#	246315
#	250794
#	269369
#	280797
#	292706
#	312618
#
# Disc length: 4739 seconds
#
# Revision: 1
# Processed by: cddbd v1.4b41PL1 Copyright (c) Steve Scherf et al.
# Submitted via: xmcd 2.1 PL1
#
DISCID=2a128114
DTITLE=Various Artist - Angola Prisoners' Blues
DYEAR=1900
DGENRE=
TTITLE0=Prisoner's Talking Blues (Robert Pete Williams)
TTITLE1=Stagolee (Hogman Maxey)
TTITLE2=Electric Chair Blues (Guitar Welch)
TTITLE3=Black Night is Fallin' (Hogman Maxey)
TTITLE4=Some Got Six Months (Robert Pete Williams)
TTITLE5=I'm Gonna Leave You Mama (Guitar Welch)
TTITLE6=I'm Lonesome Blues (Robert Pete Williams)
TTITLE7=Angola Bound (A Capella Group)
TTITLE8=Worried Blues (Hogman Maxey)
TTITLE9=Josephine (Guitar Welch)
TTITLE10=Soldier's Plea (Clara Young)
TTITLE11=The Moon IS Rising (Odea Mathews)
TTITLE12=I'm Still in Love with You (Thelma Mae Joseph)
TTITLE13=I Miss You So (Vocal Group)
TTITLE14=Hello, Sue (Butterbeans)
TTITLE15=Fast Life Woman (Hogman Maxey)
TTITLE16=Careless Love (Otis Webster)
TTITLE17=Have You Ever Heard The Church Bells Tone (Roosevelt Charles, Ot
TTITLE17=is Webster)
TTITLE18=61 Highway (Guitar Welch)
TTITLE19=Strike At Camp I (Roosevelt Charles)
EXTD=
EXTT0=
EXTT1=
EXTT2=
EXTT3=
EXTT4=
EXTT5=
EXTT6=
EXTT7=
EXTT8=
EXTT9=
EXTT10=
EXTT11=
EXTT12=
EXTT13=
EXTT14=
EXTT15=
EXTT16=
EXTT17=
EXTT18=
EXTT19=
PLAYORDER=
